Coordinates
version=1
nRows=17
nColumns=24
inDegrees=yes

Units are S.I. units (second, meters, Newtons, ...)
Angles are in degrees.

endheader
time	pelvis_tilt	pelvis_list	pelvis_rotation	pelvis_tx	pelvis_ty	pelvis_tz	hip_flexion_r	hip_adduction_r	hip_rotation_r	knee_angle_r	ankle_angle_r	subtalar_angle_r	mtp_angle_r	hip_flexion_l	hip_adduction_l	hip_rotation_l	knee_angle_l	ankle_angle_l	subtalar_angle_l	mtp_angle_l	lumbar_extension	lumbar_bending	lumbar_rotation
      5.20000000	     -1.60419988	      4.14629592	      1.93961881	      0.86360312	      1.00545868	     -0.25396091	     23.09643901	     -2.08028808	      5.94182803	     -5.76005981	     12.52621448	     -4.47356209	      0.00000000	    -17.19288953	      7.17493834	      4.08989544	     -6.23618000	     14.67975205	     -5.69002735	      0.00000000	    -11.46392063	     -3.77842890	    -10.51923105
      5.20500000	     -1.48765173	      4.02374901	      1.89601060	      0.87098245	      1.00502253	     -0.25344375	     23.06461065	     -1.83106100	      5.86396639	     -6.57618467	     12.39745247	     -4.17357790	      0.00000000	    -17.28419043	      6.98097257	      3.75496427	     -7.11463102	     14.81028845	     -4.98649902	      0.00000000	    -11.50848286	     -3.62104404	    -10.39727281
      5.21000000	     -1.37780570	      3.86418391	      1.85246063	      0.87840404	      1.00465560	     -0.25290411	     23.04163825	     -1.54775974	      5.76753636	     -7.44392184	     12.11649285	     -3.88464538	      0.00000000	    -17.34213360	      6.74660687	      3.34511385	     -8.03268512	     14.89620219	     -4.27029329	      0.00000000	    -11.54002747	     -3.42930553	    -10.28868789
      5.21500000	     -1.27459587	      3.68281514	      1.81712172	      0.88583926	      1.00434696	     -0.25237469	     23.02506616	     -1.25245461	      5.69098715	     -8.34119651	     11.72040376	     -3.62681058	      0.00000000	    -17.35898632	      6.48429010	      2.88973440	     -9.01127652	     14.97247231	     -3.51463852	      0.00000000	    -11.56611657	     -3.20652298	    -10.17153036
      5.22000000	     -1.19443169	      3.46435214	      1.77298180	      0.89328829	      1.00411918	     -0.25181154	     23.03727357	     -0.91991846	      5.56712819	     -9.24706049	     11.16626617	     -3.42984151	      0.00000000	    -17.33555794	      6.18286030	      2.43334078	    -10.00710658	     14.95871734	     -2.80291822	      0.00000000	    -11.56412785	     -2.94368507	    -10.02661035
      5.22500000	     -1.13015394	      3.21797832	      1.73275759	      0.90072760	      1.00398644	     -0.25124573	     23.06997960	     -0.56810729	      5.41991626	    -10.15455920	     10.52503670	     -3.29152511	      0.00000000	    -17.26347270	      5.84776388	      1.93454881	    -11.04941167	     14.88073194	     -2.09084765	      0.00000000	    -11.54695196	     -2.65545976	     -9.87114797
      5.23000000	     -1.08843971	      2.94497794	      1.68952596	      0.90816668	      1.00394285	     -0.25068156	     23.12579656	     -0.19665191	      5.26368118	    -11.04959528	      9.85048109	     -3.22134460	      0.00000000	    -17.13656115	      5.48252277	      1.40634724	    -12.13631861	     14.72437585	     -1.39552798	      0.00000000	    -11.50486528	     -2.32944367	     -9.70914906
      5.23500000	     -1.06272739	      2.66329373	      1.64998973	      0.91557795	      1.00399283	     -0.25011727	     23.20252699	      0.17684533	      5.11397850	    -11.94278903	      9.20029328	     -3.24194339	      0.00000000	    -16.95413886	      5.10095560	      0.83965098	    -13.27848928	     14.48713167	     -0.71430518	      0.00000000	    -11.45073581	     -1.99866917	     -9.54095041
      5.24000000	     -1.05289407	      2.38417513	      1.60553629	      0.92296025	      1.00411339	     -0.24955346	     23.29829932	      0.54480436	      4.99386938	    -12.83458938	      8.62497911	     -3.35198972	      0.00000000	    -16.71280991	      4.71608236	      0.23800372	    -14.48422820	     14.16929644	     -0.04762016	      0.00000000	    -11.38581974	     -1.66904290	     -9.37040333
      5.24500000	     -1.05349419	      2.10377273	      1.57463457	      0.93038167	      1.00433184	     -0.24904104	     23.39374304	      0.89909981	      4.85051216	    -13.71499826	      8.16888490	     -3.47960753	      0.00000000	    -16.43218009	      4.32137624	     -0.35869556	    -15.72557504	     13.70429501	      0.53818064	      0.00000000	    -11.29882776	     -1.33985242	     -9.20500646
      5.25000000	     -1.05687855	      1.85329601	      1.54436188	      0.93777613	      1.00459915	     -0.24857861	     23.49109688	      1.21712031	      4.71422766	    -14.60179168	      7.87653644	     -3.64753029	      0.00000000	    -16.09518483	      3.94851575	     -0.99265373	    -17.04930407	     13.14442575	      1.10255271	      0.00000000	    -11.21458330	     -1.03203189	     -9.04228415
      5.25500000	     -1.06044426	      1.62872531	      1.51751828	      0.94516411	      1.00491414	     -0.24811259	     23.58426327	      1.50522567	      4.56828465	    -15.49690307	      7.75097314	     -3.81232022	      0.00000000	    -15.71559024	      3.58920089	     -1.63766988	    -18.42851923	     12.45751875	      1.59200943	      0.00000000	    -11.13489819	     -0.75918441	     -8.89035965
      5.26000000	     -1.07134715	      1.42889442	      1.48156337	      0.95252289	      1.00524947	     -0.24769163	     23.67978295	      1.76454018	      4.42009357	    -16.39524346	      7.78253831	     -3.93706828	      0.00000000	    -15.27505663	      3.24649663	     -2.31076366	    -19.88214357	     11.65804143	      2.03879052	      0.00000000	    -11.05301819	     -0.50530243	     -8.75418903
      5.26500000	     -1.15384920	      1.27945717	      1.45330759	      0.95990941	      1.00551888	     -0.24728444	     23.83108822	      1.97020393	      4.30135436	    -17.27897475	      7.96883355	     -4.04854827	      0.00000000	    -14.70475251	      2.93978637	     -3.00997457	    -21.40608640	     10.69528154	      2.39198036	      0.00000000	    -10.87582715	     -0.30841532	     -8.63570015
      5.27000000	     -1.11618800	      1.12620582	      1.43827909	      0.96724365	      1.00600129	     -0.24693969	     23.83541154	      2.16173014	      4.06228349	    -18.13156169	      8.28677946	     -4.01493599	      0.00000000	    -14.21185103	      2.60589831	     -3.69881703	    -22.98176259	      9.56815180	      2.69573797	      0.00000000	    -10.86108994	     -0.09997863	     -8.51499811
      5.27500000	     -1.11640979	      0.99305950	      1.42002601	      0.97459267	      1.00644472	     -0.24656756	     23.84897987	      2.33606778	      3.84605055	    -18.94029219	      8.70577819	     -3.95253080	      0.00000000	    -13.62516169	      2.26951679	     -4.43553155	    -24.62010296	      8.28468746	      2.93040425	      0.00000000	    -10.79247328	      0.08247163	     -8.40204761
      5.28000000	     -1.21658256	      0.92543057	      1.42025892	      0.98187453	      1.00676062	     -0.24617326	     23.94774676	      2.44007568	      3.64873107	    -19.72015479	      9.23320435	     -3.85091995	      0.00000000	    -12.86803837	      1.97579457	     -5.16280106	    -26.32775151	      6.82162323	      3.05391359	      0.00000000	    -10.60914448	      0.17106719	     -8.32183185
